# xmcd
#
# Track frame offsets:
#	182
#	13735
#	28920
#	43435
#	55340
#	69650
#	86300
#	98407
#	114750
#	132120
#	146395
#	158570
#
# Disc length: 2296 seconds
#
# Revision: 4
# Processed by: cddbd v1.5.2PL0 Copyright (c) Steve Scherf et al.
# Submitted via: EZCDAudioConverter 6.0.2.1
#
DISCID=9508f60c
DTITLE=Various Artist - New Country II 
DYEAR=1993
DGENRE=Country
TTITLE0=Travis Tritt - T-R-O-U-B-L-E
TTITLE1=Mary Stuart - Now That's Country
TTITLE2=Sawyer Brown - Some Girls Do
TTITLE3=Lucinda Williams - Passionate Kisses
TTITLE4=Radney Foster - Just Call Me Lonesome
TTITLE5=Carlene Carter - I Fell in Love
TTITLE6=Randy Travis - Better Class of Losers
TTITLE7=Tracy Lawrence - Sticks and Stones
TTITLE8=John Anderson - When It Comes To You
TTITLE9=Neal McCoy - Where Forever Begins
TTITLE10=Dan Seals - When Love Comes Around the Bend
TTITLE11=Hank Williams, Jr. - Good Friends, Good WHiskey, Good Lovin'
EXTD=
EXTT0=
EXTT1=
EXTT2=
EXTT3=
EXTT4=
EXTT5=
EXTT6=
EXTT7=
EXTT8=
EXTT9=
EXTT10=
EXTT11=
PLAYORDER=
